<svg width="120" height="40" viewBox="0 0 120 40" fill="none" xmlns="http://www.w3.org/2000/svg">
<g clip-path="url(#clip0)">
<path d="M110.135 -0.000114141H9.53468C9.16798 -0.000114141 8.80568 -0.000114141 8.43995 0.00188586C8.1338 0.00388586 7.83009 0.00969586 7.521 0.0145859C6.84951 0.0224877 6.17961 0.0815621 5.5171 0.191296C4.85552 0.303418 4.21467 0.514802 3.61622 0.818296C3.0185 1.12436 2.47235 1.52205 1.99757 1.99696C1.5203 2.47052 1.12246 3.0179 0.81935 3.61805C0.5154 4.21699 0.304641 4.85882 0.19435 5.52137C0.0830109 6.18307 0.0230984 6.85241 0.01515 7.52337C0.00587 7.82997 0.00489 8.13759 0 8.44423V31.5585C0.00489 31.869 0.00587 32.1698 0.01515 32.4804C0.0231008 33.1513 0.0830134 33.8206 0.19435 34.4823C0.304336 35.1452 0.515108 35.7874 0.81935 36.3866C1.12233 36.9848 1.52022 37.53 1.99757 38.0009C2.47054 38.4779 3.01705 38.8759 3.61622 39.1796C4.21467 39.4839 4.85545 39.6965 5.5171 39.8104C6.17972 39.9192 6.84956 39.9783 7.521 39.9872C7.83009 39.994 8.1338 39.9979 8.43995 39.9979C8.80567 39.9999 9.168 39.9999 9.53468 39.9999H110.135C110.494 39.9999 110.859 39.9999 111.219 39.9979C111.523 39.9979 111.836 39.994 112.141 39.9872C112.811 39.9788 113.479 39.9197 114.141 39.8104C114.804 39.6957 115.448 39.4831 116.049 39.1796C116.647 38.8757 117.193 38.4777 117.666 38.0009C118.142 37.5281 118.541 36.9833 118.848 36.3866C119.15 35.787 119.358 35.1448 119.467 34.4823C119.578 33.8205 119.64 33.1514 119.652 32.4804C119.656 32.1698 119.656 31.869 119.656 31.5585C119.664 31.1952 119.664 30.8339 119.664 30.4647V9.53602C119.664 9.16981 119.664 8.80653 119.656 8.44423C119.656 8.13759 119.656 7.82997 119.652 7.52333C119.64 6.85231 119.578 6.18312 119.467 5.52133C119.358 4.85917 119.149 4.21739 118.848 3.61801C118.23 2.41508 117.252 1.43591 116.049 0.818206C115.448 0.515453 114.804 0.304126 114.141 0.191206C113.48 0.0809886 112.811 0.0218936 112.141 0.0144459C111.836 0.00956586 111.523 0.00370586 111.219 0.00175586C110.859 -0.000244141 110.494 -0.000244141 110.135 -0.000244141V-0.000114141Z" fill="#A6A6A6"/>
<path d="M8.44484 39.125C8.14016 39.125 7.84284 39.1211 7.54055 39.1143C6.91433 39.1061 6.28957 39.0516 5.67141 38.9512C5.095 38.8519 4.53661 38.6673 4.01467 38.4033C3.49751 38.1415 3.02582 37.7983 2.61767 37.3867C2.20361 36.98 1.85888 36.5082 1.59716 35.9902C1.33255 35.4688 1.14942 34.9099 1.05416 34.333C0.951281 33.7131 0.895621 33.0863 0.887656 32.458C0.881316 32.2471 0.873016 31.5449 0.873016 31.5449V8.44434C0.873016 8.44434 0.881856 7.75293 0.887706 7.5498C0.895332 6.92248 0.950669 6.29665 1.05324 5.67773C1.14868 5.09925 1.33194 4.53875 1.5967 4.01563C1.85746 3.49794 2.20027 3.02586 2.61184 2.61768C3.02294 2.20562 3.49614 1.8606 4.01418 1.59521C4.53492 1.33209 5.09225 1.14873 5.6675 1.05127C6.28769 0.949836 6.91462 0.894996 7.54301 0.88721L8.44533 0.875H111.214L112.127 0.8877C112.75 0.895099 113.371 0.94945 113.985 1.05029C114.566 1.14898 115.13 1.33362 115.656 1.59814C116.694 2.13299 117.539 2.97916 118.071 4.01807C118.332 4.53758 118.512 5.09351 118.606 5.66699C118.71 6.29099 118.768 6.92174 118.78 7.5542C118.783 7.8374 118.783 8.1416 118.783 8.44434C118.791 8.81934 118.791 9.17627 118.791 9.53613V30.4648C118.791 30.8281 118.791 31.1826 118.783 31.54C118.783 31.8652 118.783 32.1631 118.779 32.4697C118.768 33.0909 118.71 33.7104 118.608 34.3232C118.515 34.9043 118.333 35.4675 118.068 35.9932C117.805 36.5056 117.462 36.9733 117.053 37.3789C116.644 37.7927 116.172 38.1379 115.653 38.4014C115.128 38.6674 114.566 38.8527 113.985 38.9512C113.367 39.0522 112.742 39.1067 112.116 39.1143C111.823 39.1211 111.517 39.125 111.219 39.125L110.135 39.127L8.44484 39.125Z" fill="black"/>
<path d="M37.6152 8.65869V15H39.7466C41.6318 15 42.7393 13.8267 42.7393 11.8271C42.7393 9.83203 41.6274 8.65869 39.7466 8.65869H37.6152ZM38.4062 9.37061H39.6938C41.1353 9.37061 41.9307 10.2495 41.9307 11.8359C41.9307 13.4092 41.1309 14.2881 39.6938 14.2881H38.4062V9.37061ZM45.499 15.0791C46.7603 15.0791 47.6128 14.1694 47.6128 12.7148C47.6128 11.2559 46.7603 10.3506 45.499 10.3506C44.2334 10.3506 43.3809 11.2559 43.3809 12.7148C43.3809 14.1694 44.2334 15.0791 45.499 15.0791ZM45.499 14.4067C44.6904 14.4067 44.1587 13.7915 44.1587 12.7148C44.1587 11.6382 44.6904 11.0229 45.499 11.0229C46.3076 11.0229 46.835 11.6382 46.835 12.7148C46.835 13.7915 46.3076 14.4067 45.499 14.4067ZM54.2002 10.4297H53.4443L52.5303 14.1475H52.5127L51.4756 10.4297H50.7373L49.7046 14.1475H49.687L48.7729 10.4297H48.0127L49.2915 15H50.0693L51.0977 11.4624H51.1152L52.1479 15H52.9258L54.2002 10.4297ZM54.8286 15H55.5933V12.3105C55.5933 11.5371 56.0635 11.0273 56.7842 11.0273C57.4873 11.0273 57.8345 11.4316 57.8345 12.1699V15H58.5991V12.0337C58.5991 10.9966 58.019 10.3506 57.0171 10.3506C56.3096 10.3506 55.8218 10.667 55.5669 11.1592H55.5493V10.4297H54.8286V15ZM59.6143 15H60.3789V8.65869H59.6143V15ZM63.3057 15.0791C64.5669 15.0791 65.4194 14.1694 65.4194 12.7148C65.4194 11.2559 64.5669 10.3506 63.3057 10.3506C62.04 10.3506 61.1875 11.2559 61.1875 12.7148C61.1875 14.1694 62.04 15.0791 63.3057 15.0791ZM63.3057 14.4067C62.4971 14.4067 61.9653 13.7915 61.9653 12.7148C61.9653 11.6382 62.4971 11.0229 63.3057 11.0229C64.1143 11.0229 64.6416 11.6382 64.6416 12.7148C64.6416 13.7915 64.1143 14.4067 63.3057 14.4067ZM67.7002 14.4287C67.1509 14.4287 66.7861 14.1431 66.7861 13.708C66.7861 13.2773 67.1377 13.0049 67.7529 12.9653L68.9746 12.8906V13.2642C68.9746 13.9233 68.4209 14.4287 67.7002 14.4287ZM67.5288 15.0791C68.144 15.0791 68.7241 14.7363 68.9966 14.2134H69.0142V15H69.7393V11.8403C69.7393 10.9307 69.0625 10.3506 67.9902 10.3506C66.9092 10.3506 66.2324 10.957 66.1797 11.748H66.918C67.0146 11.2998 67.3838 11.0229 67.9727 11.0229C68.6055 11.0229 68.9746 11.3569 68.9746 11.915V12.2974L67.665 12.3721C66.6104 12.4336 66.0083 12.9258 66.0083 13.708C66.0083 14.5298 66.6191 15.0791 67.5288 15.0791ZM72.4419 15.0791C73.1011 15.0791 73.624 14.7539 73.9185 14.2266H73.9316V15H74.6611V8.65869H73.8965V11.1724H73.8789C73.6064 10.6714 73.0791 10.3506 72.4243 10.3506C71.2729 10.3506 70.4863 11.2822 70.4863 12.7148C70.4863 14.1475 71.2773 15.0791 72.4419 15.0791ZM72.5869 11.0229C73.3735 11.0229 73.9009 11.6953 73.9009 12.7148C73.9009 13.7388 73.3735 14.4067 72.5869 14.4067C71.7783 14.4067 71.2686 13.752 71.2686 12.7148C71.2686 11.6821 71.7783 11.0229 72.5869 11.0229ZM79.0469 14.4287C78.4976 14.4287 78.1328 14.1431 78.1328 13.708C78.1328 13.2773 78.4844 13.0049 79.0996 12.9653L80.3213 12.8906V13.2642C80.3213 13.9233 79.7676 14.4287 79.0469 14.4287ZM78.8755 15.0791C79.4907 15.0791 80.0708 14.7363 80.3433 14.2134H80.3608V15H81.0859V11.8403C81.0859 10.9307 80.4092 10.3506 79.3369 10.3506C78.2559 10.3506 77.5791 10.957 77.5264 11.748H78.2646C78.3613 11.2998 78.7305 11.0229 79.3193 11.0229C79.9521 11.0229 80.3213 11.3569 80.3213 11.915V12.2974L79.0117 12.3721C77.957 12.4336 77.355 12.9258 77.355 13.708C77.355 14.5298 77.9658 15.0791 78.8755 15.0791ZM81.978 11.6909C81.978 12.3149 82.3735 12.728 83.1777 12.9346L83.9819 13.1411C84.4961 13.2773 84.6851 13.4531 84.6851 13.7783C84.6851 14.1914 84.3027 14.4551 83.6831 14.4551C83.0635 14.4551 82.7031 14.2002 82.6196 13.7256H81.855C81.9341 14.5342 82.6328 15.0791 83.6348 15.0791C84.7026 15.0791 85.4541 14.5166 85.4541 13.7212C85.4541 13.0488 85.1201 12.7148 84.1973 12.4819L83.4897 12.3105C82.9712 12.1787 82.7295 11.9678 82.7295 11.6514C82.7295 11.2515 83.0986 10.9746 83.6567 10.9746C84.2192 10.9746 84.5752 11.2471 84.6279 11.6865H85.3574C85.3223 10.9131 84.6279 10.3506 83.6831 10.3506C82.6768 10.3506 81.978 10.9087 81.978 11.6909Z" fill="white"/>
<path d="M42.811 29H44.3154L41.0083 19.8403H39.4722L36.165 29H37.644L38.4819 26.5244H41.9731L42.811 29ZM40.2085 21.3638H40.2466L41.6113 25.3818H38.8438L40.2085 21.3638ZM45.1597 29H46.5308V25.1089C46.5308 24.0742 47.1528 23.3887 48.1177 23.3887C49.0698 23.3887 49.5396 23.9409 49.5396 24.9438V29H50.917V24.6772C50.917 23.1475 50.0728 22.208 48.6001 22.208C47.5718 22.208 46.8608 22.6777 46.499 23.4395H46.4673V22.3223H45.1597V29ZM54.751 29.1143C55.7222 29.1143 56.4839 28.6255 56.8774 27.8638H56.9028V29H58.2358V19.8403H56.8584V23.4331H56.833C56.4585 22.6968 55.6968 22.2144 54.7383 22.2144C53.0625 22.2144 51.9453 23.5537 51.9453 25.6611C51.9453 27.7686 53.0625 29.1143 54.751 29.1143ZM55.1128 23.3696C56.1665 23.3696 56.8711 24.2773 56.8711 25.6611C56.8711 27.0576 56.1665 27.9526 55.1128 27.9526C54.0273 27.9526 53.3481 27.0703 53.3481 25.6611C53.3481 24.2583 54.0273 23.3696 55.1128 23.3696ZM59.645 29H61.0161V25.001C61.0161 24.0552 61.562 23.4648 62.4443 23.4648C62.7109 23.4648 62.9521 23.4966 63.0601 23.541V22.2651C62.9585 22.2461 62.7871 22.2144 62.5903 22.2144C61.8032 22.2144 61.2065 22.6777 60.9844 23.4585H60.9526V22.3223H59.645V29ZM66.4878 29.127C68.3984 29.127 69.6553 27.813 69.6553 25.6611C69.6553 23.5156 68.3921 22.2017 66.4878 22.2017C64.5835 22.2017 63.3203 23.5156 63.3203 25.6611C63.3203 27.813 64.5771 29.127 66.4878 29.127ZM66.4878 27.9971C65.415 27.9971 64.7168 27.1465 64.7168 25.6611C64.7168 24.1821 65.415 23.3315 66.4878 23.3315C67.5605 23.3315 68.2588 24.1821 68.2588 25.6611C68.2588 27.1465 67.5669 27.9971 66.4878 27.9971ZM70.7598 29H72.1309V22.3223H70.7598V29ZM71.4453 21.3447C71.8896 21.3447 72.2451 20.9956 72.2451 20.564C72.2451 20.126 71.8896 19.7769 71.4453 19.7769C71.0073 19.7769 70.6519 20.126 70.6519 20.564C70.6519 20.9956 71.0073 21.3447 71.4453 21.3447ZM76.041 29.1143C77.0122 29.1143 77.7739 28.6255 78.1675 27.8638H78.1929V29H79.5259V19.8403H78.1484V23.4331H78.123C77.7485 22.6968 76.9868 22.2144 76.0283 22.2144C74.3525 22.2144 73.2354 23.5537 73.2354 25.6611C73.2354 27.7686 74.3525 29.1143 76.041 29.1143ZM76.4028 23.3696C77.4565 23.3696 78.1611 24.2773 78.1611 25.6611C78.1611 27.0576 77.4565 27.9526 76.4028 27.9526C75.3174 27.9526 74.6382 27.0703 74.6382 25.6611C74.6382 24.2583 75.3174 23.3696 76.4028 23.3696ZM89.7075 29H91.2119L87.9048 19.8403H86.3687L83.0615 29H84.5405L85.3784 26.5244H88.8696L89.7075 29ZM87.105 21.3638H87.1431L88.5078 25.3818H85.7402L87.105 21.3638ZM92.2212 19.8403V29H93.6431V25.8706H95.6108C97.4072 25.8706 98.6704 24.6392 98.6704 22.8491C98.6704 21.0654 97.4326 19.8403 95.6553 19.8403H92.2212ZM93.6431 21.04H95.2808C96.5122 21.04 97.2168 21.7002 97.2168 22.8555C97.2168 24.0107 96.5122 24.6772 95.2744 24.6772H93.6431V21.04ZM101.336 29V25.9468L102.276 24.874L105.45 29H107.214L103.279 23.8965L106.91 19.8403H105.221L101.394 24.2012H101.336V19.8403H99.9146V29H101.336Z" fill="white"/>
<path d="M15.3586 8.02025C15.2974 8.0315 15.2343 8.04275 15.1805 8.08024C14.9634 8.22833 14.9151 8.53576 15.0617 8.75509L16.0859 10.2998C14.5032 11.1471 13.3231 12.5549 12.9391 14.2439H26.0609C25.6769 12.5549 24.4968 11.1471 22.9141 10.2998L23.9383 8.75509C24.0849 8.53576 24.0366 8.22833 23.8195 8.08024C23.6006 7.93214 23.2981 7.99588 23.1516 8.21521L22.0234 9.89484C21.2404 9.60615 20.3906 9.44494 19.5 9.44494C18.6094 9.44494 17.7596 9.60615 16.9766 9.89484L15.8484 8.21521C15.739 8.05024 15.5404 7.98463 15.3586 8.02025ZM16.8875 11.8444C17.2809 11.8444 17.6 12.1668 17.6 12.5643C17.6 12.9635 17.2809 13.2841 16.8875 13.2841C16.4923 13.2841 16.175 12.9635 16.175 12.5643C16.175 12.1668 16.4923 11.8444 16.8875 11.8444ZM22.1125 11.8444C22.5077 11.8444 22.825 12.1668 22.825 12.5643C22.825 12.9635 22.5077 13.2841 22.1125 13.2841C21.7191 13.2841 21.4 12.9635 21.4 12.5643C21.4 12.1668 21.7191 11.8444 22.1125 11.8444ZM11.425 15.2037C10.6383 15.2037 10 15.8485 10 16.6434V23.3619C10 24.1567 10.6383 24.8016 11.425 24.8016C11.592 24.8016 11.7516 24.766 11.9 24.7116V15.2937C11.7516 15.2393 11.592 15.2037 11.425 15.2037ZM12.85 15.2037V25.7614C12.85 26.5543 13.4901 27.2011 14.275 27.2011H24.725C25.5099 27.2011 26.15 26.5543 26.15 25.7614V15.2037H12.85ZM27.575 15.2037C27.408 15.2037 27.2484 15.2393 27.1 15.2937V24.7116C27.2484 24.7641 27.408 24.8016 27.575 24.8016C28.3617 24.8016 29 24.1567 29 23.3619V16.6434C29 15.8485 28.3617 15.2037 27.575 15.2037ZM14.75 28.1608V30.0804C14.75 31.1396 15.6017 32 16.65 32C17.6983 32 18.55 31.1396 18.55 30.0804V28.1608H14.75ZM20.45 28.1608V30.0804C20.45 31.1396 21.3017 32 22.35 32C23.3983 32 24.25 31.1396 24.25 30.0804V28.1608H20.45Z" fill="#A4C639"/>
</g>
<defs>
<clipPath id="clip0">
<rect width="119.664" height="40" fill="white"/>
</clipPath>
</defs>
</svg>
