<svg width="120" height="40" viewBox="0 0 120 40" fill="none" xmlns="http://www.w3.org/2000/svg">
<g clip-path="url(#clip0)">
<path d="M110.135 -0.000114141H9.53468C9.16798 -0.000114141 8.80568 -0.000114141 8.43995 0.00188586C8.1338 0.00388586 7.83009 0.00969586 7.521 0.0145859C6.84951 0.0224877 6.17961 0.0815621 5.5171 0.191296C4.85552 0.303418 4.21467 0.514802 3.61622 0.818296C3.0185 1.12436 2.47235 1.52205 1.99757 1.99696C1.5203 2.47052 1.12246 3.0179 0.81935 3.61805C0.5154 4.21699 0.304641 4.85882 0.19435 5.52137C0.0830109 6.18307 0.0230984 6.85241 0.01515 7.52337C0.00587 7.82997 0.00489 8.13759 0 8.44423V31.5585C0.00489 31.869 0.00587 32.1698 0.01515 32.4804C0.0231008 33.1513 0.0830134 33.8206 0.19435 34.4823C0.304336 35.1452 0.515108 35.7874 0.81935 36.3866C1.12233 36.9848 1.52022 37.53 1.99757 38.0009C2.47054 38.4779 3.01705 38.8759 3.61622 39.1796C4.21467 39.4839 4.85545 39.6965 5.5171 39.8104C6.17972 39.9192 6.84956 39.9783 7.521 39.9872C7.83009 39.994 8.1338 39.9979 8.43995 39.9979C8.80567 39.9999 9.168 39.9999 9.53468 39.9999H110.135C110.494 39.9999 110.859 39.9999 111.219 39.9979C111.523 39.9979 111.836 39.994 112.141 39.9872C112.811 39.9788 113.479 39.9197 114.141 39.8104C114.804 39.6957 115.448 39.4831 116.049 39.1796C116.647 38.8757 117.193 38.4777 117.666 38.0009C118.142 37.5281 118.541 36.9833 118.848 36.3866C119.15 35.787 119.358 35.1448 119.467 34.4823C119.578 33.8205 119.64 33.1514 119.652 32.4804C119.656 32.1698 119.656 31.869 119.656 31.5585C119.664 31.1952 119.664 30.8339 119.664 30.4647V9.53602C119.664 9.16981 119.664 8.80653 119.656 8.44423C119.656 8.13759 119.656 7.82997 119.652 7.52333C119.64 6.85231 119.578 6.18312 119.467 5.52133C119.358 4.85917 119.149 4.21739 118.848 3.61801C118.23 2.41508 117.252 1.43591 116.049 0.818206C115.448 0.515453 114.804 0.304126 114.141 0.191206C113.48 0.0809886 112.811 0.0218936 112.141 0.0144459C111.836 0.00956586 111.523 0.00370586 111.219 0.00175586C110.859 -0.000244141 110.494 -0.000244141 110.135 -0.000244141V-0.000114141Z" fill="#A6A6A6"/>
<path d="M8.44484 39.125C8.14016 39.125 7.84284 39.1211 7.54055 39.1143C6.91433 39.1061 6.28957 39.0516 5.67141 38.9512C5.095 38.8519 4.53661 38.6673 4.01467 38.4033C3.49751 38.1415 3.02582 37.7983 2.61767 37.3867C2.20361 36.98 1.85888 36.5082 1.59716 35.9902C1.33255 35.4688 1.14942 34.9099 1.05416 34.333C0.951281 33.7131 0.895621 33.0863 0.887656 32.458C0.881316 32.2471 0.873016 31.5449 0.873016 31.5449V8.44434C0.873016 8.44434 0.881856 7.75293 0.887706 7.5498C0.895332 6.92248 0.950669 6.29665 1.05324 5.67773C1.14868 5.09925 1.33194 4.53875 1.5967 4.01563C1.85746 3.49794 2.20027 3.02586 2.61184 2.61768C3.02294 2.20562 3.49614 1.8606 4.01418 1.59521C4.53492 1.33209 5.09225 1.14873 5.6675 1.05127C6.28769 0.949836 6.91462 0.894996 7.54301 0.88721L8.44533 0.875H111.214L112.127 0.8877C112.75 0.895099 113.371 0.94945 113.985 1.05029C114.566 1.14898 115.13 1.33362 115.656 1.59814C116.694 2.13299 117.539 2.97916 118.071 4.01807C118.332 4.53758 118.512 5.09351 118.606 5.66699C118.71 6.29099 118.768 6.92174 118.78 7.5542C118.783 7.8374 118.783 8.1416 118.783 8.44434C118.791 8.81934 118.791 9.17627 118.791 9.53613V30.4648C118.791 30.8281 118.791 31.1826 118.783 31.54C118.783 31.8652 118.783 32.1631 118.779 32.4697C118.768 33.0909 118.71 33.7104 118.608 34.3232C118.515 34.9043 118.333 35.4675 118.068 35.9932C117.805 36.5056 117.462 36.9733 117.053 37.3789C116.644 37.7927 116.172 38.1379 115.653 38.4014C115.128 38.6674 114.566 38.8527 113.985 38.9512C113.367 39.0522 112.742 39.1067 112.116 39.1143C111.823 39.1211 111.517 39.125 111.219 39.125L110.135 39.127L8.44484 39.125Z" fill="black"/>
<path d="M37.5845 8.65869V15H39.8213C41.7109 15 42.8228 13.8223 42.8228 11.8184C42.8228 9.81885 41.7065 8.65869 39.8213 8.65869H37.5845ZM38.5688 9.50684H39.729C41.0693 9.50684 41.8164 10.333 41.8164 11.8271C41.8164 13.3257 41.0737 14.1475 39.729 14.1475H38.5688V9.50684ZM45.6353 15.0879C46.958 15.0879 47.8281 14.1782 47.8281 12.6885C47.8281 11.2031 46.9536 10.2935 45.6353 10.2935C44.3169 10.2935 43.4424 11.2031 43.4424 12.6885C43.4424 14.1782 44.3125 15.0879 45.6353 15.0879ZM45.6353 14.3057C44.8926 14.3057 44.4092 13.7168 44.4092 12.6885C44.4092 11.6646 44.8926 11.0757 45.6353 11.0757C46.3779 11.0757 46.8613 11.6646 46.8613 12.6885C46.8613 13.7168 46.3823 14.3057 45.6353 14.3057ZM54.644 10.377H53.7036L52.8599 14.0156H52.8379L51.8711 10.377H50.957L49.9946 14.0156H49.9771L49.1333 10.377H48.1841L49.4541 15H50.4341L51.3965 11.5371H51.4185L52.3896 15H53.3784L54.644 10.377ZM55.2241 15H56.1733V12.3062C56.1733 11.5898 56.604 11.1152 57.272 11.1152C57.9312 11.1152 58.2563 11.4976 58.2563 12.1919V15H59.21V12.0073C59.21 10.9482 58.6255 10.2979 57.606 10.2979C56.894 10.2979 56.4019 10.623 56.1514 11.1504H56.1294V10.377H55.2241V15ZM60.1636 15H61.1128V8.65869H60.1636V15ZM64.0747 15.0879C65.3975 15.0879 66.2676 14.1782 66.2676 12.6885C66.2676 11.2031 65.3931 10.2935 64.0747 10.2935C62.7563 10.2935 61.8818 11.2031 61.8818 12.6885C61.8818 14.1782 62.752 15.0879 64.0747 15.0879ZM64.0747 14.3057C63.332 14.3057 62.8486 13.7168 62.8486 12.6885C62.8486 11.6646 63.332 11.0757 64.0747 11.0757C64.8174 11.0757 65.3008 11.6646 65.3008 12.6885C65.3008 13.7168 64.8218 14.3057 64.0747 14.3057ZM68.6187 14.3276C68.1089 14.3276 67.7749 14.064 67.7749 13.6597C67.7749 13.2642 68.0957 13.0137 68.6626 12.9741L69.8008 12.9038V13.2686C69.8008 13.8706 69.2822 14.3276 68.6187 14.3276ZM68.355 15.0791C68.9614 15.0791 69.5459 14.7539 69.814 14.2397H69.8359V15H70.7456V11.814C70.7456 10.8867 70.0293 10.2935 68.9087 10.2935C67.7661 10.2935 67.0542 10.9087 67.0015 11.7437H67.8979C67.9814 11.3306 68.3242 11.0669 68.8735 11.0669C69.4536 11.0669 69.8008 11.3745 69.8008 11.8887V12.2446L68.5352 12.3193C67.4365 12.3809 66.8169 12.8774 66.8169 13.686C66.8169 14.5166 67.4497 15.0791 68.355 15.0791ZM73.4043 15.0791C74.0767 15.0791 74.604 14.7407 74.8765 14.2134H74.894V15H75.8169V8.65869H74.8633V11.146H74.8457C74.5864 10.6362 74.0591 10.3022 73.3955 10.3022C72.2354 10.3022 71.4619 11.2295 71.4619 12.6885C71.4619 14.1475 72.2354 15.0791 73.4043 15.0791ZM73.6548 11.1021C74.3843 11.1021 74.8721 11.7305 74.8721 12.6885C74.8721 13.6553 74.3843 14.2749 73.6548 14.2749C72.9033 14.2749 72.4331 13.6641 72.4331 12.6885C72.4331 11.7173 72.9033 11.1021 73.6548 11.1021ZM80.2378 14.3276C79.728 14.3276 79.394 14.064 79.394 13.6597C79.394 13.2642 79.7148 13.0137 80.2817 12.9741L81.4199 12.9038V13.2686C81.4199 13.8706 80.9014 14.3276 80.2378 14.3276ZM79.9741 15.0791C80.5806 15.0791 81.165 14.7539 81.4331 14.2397H81.4551V15H82.3647V11.814C82.3647 10.8867 81.6484 10.2935 80.5278 10.2935C79.3853 10.2935 78.6733 10.9087 78.6206 11.7437H79.5171C79.6006 11.3306 79.9434 11.0669 80.4927 11.0669C81.0728 11.0669 81.4199 11.3745 81.4199 11.8887V12.2446L80.1543 12.3193C79.0557 12.3809 78.436 12.8774 78.436 13.686C78.436 14.5166 79.0688 15.0791 79.9741 15.0791ZM83.2041 11.6865C83.2041 12.3325 83.626 12.7676 84.4609 12.9697L85.2871 13.1719C85.7705 13.2949 85.9463 13.4575 85.9463 13.752C85.9463 14.1255 85.5947 14.3628 85.0234 14.3628C84.4434 14.3628 84.1006 14.1167 84.0259 13.6729H83.0854C83.1602 14.521 83.8853 15.0879 84.9795 15.0879C86.1133 15.0879 86.8999 14.5078 86.8999 13.6641C86.8999 12.9829 86.5483 12.6313 85.6167 12.4072L84.8389 12.2271C84.3599 12.1084 84.1313 11.915 84.1313 11.6294C84.1313 11.2646 84.4741 11.0142 84.9883 11.0142C85.52 11.0142 85.8584 11.2734 85.9023 11.6909H86.7944C86.7637 10.8691 86.043 10.2935 85.0146 10.2935C83.9336 10.2935 83.2041 10.8604 83.2041 11.6865Z" fill="white"/>
<path d="M43.792 29H45.5186L42.2686 19.8403H40.4214L37.1714 29H38.8599L39.6406 26.6323H43.0112L43.792 29ZM41.3037 21.459H41.3481L42.624 25.3691H40.0215L41.3037 21.459ZM46.3438 29H47.9243V25.1025C47.9243 24.1377 48.502 23.4839 49.4097 23.4839C50.311 23.4839 50.7554 24.0171 50.7554 24.9692V29H52.3359V24.6519C52.3359 23.0967 51.4917 22.1445 50.0063 22.1445C48.9717 22.1445 48.2544 22.627 47.8926 23.4268H47.8608V22.2715H46.3438V29ZM56.1191 29.1079C57.103 29.1079 57.8774 28.6064 58.2456 27.8511H58.271V29H59.8198V19.8403H58.2393V23.4014H58.2012C57.8457 22.6587 57.084 22.1572 56.1191 22.1572C54.4243 22.1572 53.3262 23.5029 53.3262 25.6294C53.3262 27.7686 54.4243 29.1079 56.1191 29.1079ZM56.5952 23.4585C57.5918 23.4585 58.2456 24.3154 58.2456 25.6357C58.2456 26.9688 57.5918 27.813 56.5952 27.813C55.5732 27.813 54.9448 26.9751 54.9448 25.6357C54.9448 24.3027 55.5796 23.4585 56.5952 23.4585ZM61.1465 29H62.7271V25.0835C62.7271 24.1377 63.2666 23.5601 64.1616 23.5601C64.4282 23.5601 64.6694 23.5981 64.8027 23.6489V22.2207C64.6885 22.1953 64.5107 22.1572 64.3076 22.1572C63.5142 22.1572 62.9238 22.627 62.6953 23.4458H62.6636V22.2715H61.1465V29ZM68.3384 29.1333C70.3125 29.1333 71.5947 27.8193 71.5947 25.6357C71.5947 23.4585 70.2998 22.1318 68.3384 22.1318C66.377 22.1318 65.082 23.4648 65.082 25.6357C65.082 27.8193 66.3643 29.1333 68.3384 29.1333ZM68.3384 27.8828C67.3354 27.8828 66.688 27.0703 66.688 25.6357C66.688 24.2075 67.3418 23.3887 68.3384 23.3887C69.3413 23.3887 69.9888 24.2075 69.9888 25.6357C69.9888 27.0703 69.3413 27.8828 68.3384 27.8828ZM72.6484 29H74.229V22.2715H72.6484V29ZM73.4355 21.3892C73.9307 21.3892 74.3179 21.0083 74.3179 20.5322C74.3179 20.0498 73.9307 19.6689 73.4355 19.6689C72.9468 19.6689 72.5596 20.0498 72.5596 20.5322C72.5596 21.0083 72.9468 21.3892 73.4355 21.3892ZM78.0693 29.1079C79.0532 29.1079 79.8276 28.6064 80.1958 27.8511H80.2212V29H81.77V19.8403H80.1895V23.4014H80.1514C79.7959 22.6587 79.0342 22.1572 78.0693 22.1572C76.3745 22.1572 75.2764 23.5029 75.2764 25.6294C75.2764 27.7686 76.3745 29.1079 78.0693 29.1079ZM78.5454 23.4585C79.542 23.4585 80.1958 24.3154 80.1958 25.6357C80.1958 26.9688 79.542 27.813 78.5454 27.813C77.5234 27.813 76.895 26.9751 76.895 25.6357C76.895 24.3027 77.5298 23.4585 78.5454 23.4585ZM91.8438 29H93.5703L90.3203 19.8403H88.4731L85.2231 29H86.9116L87.6924 26.6323H91.063L91.8438 29ZM89.3555 21.459H89.3999L90.6758 25.3691H88.0732L89.3555 21.459ZM94.5542 19.8403V29H96.1919V25.9722H98.0454C99.8989 25.9722 101.2 24.7344 101.2 22.9062C101.2 21.0781 99.937 19.8403 98.1152 19.8403H94.5542ZM96.1919 21.1797H97.6836C98.8579 21.1797 99.5371 21.8081 99.5371 22.9062C99.5371 24.0171 98.8516 24.6519 97.6772 24.6519H96.1919V21.1797ZM104.038 29V26.0547L104.939 25.001L107.916 29H109.909L106.107 23.9028L109.636 19.8403H107.751L104.095 24.125H104.038V19.8403H102.4V29H104.038Z" fill="white"/>
<path d="M15.3586 8.02025C15.2974 8.0315 15.2343 8.04275 15.1805 8.08024C14.9634 8.22833 14.9151 8.53576 15.0617 8.75509L16.0859 10.2998C14.5032 11.1471 13.3231 12.5549 12.9391 14.2439H26.0609C25.6769 12.5549 24.4968 11.1471 22.9141 10.2998L23.9383 8.75509C24.0849 8.53576 24.0366 8.22833 23.8195 8.08024C23.6006 7.93214 23.2981 7.99588 23.1516 8.21521L22.0234 9.89484C21.2404 9.60615 20.3906 9.44494 19.5 9.44494C18.6094 9.44494 17.7596 9.60615 16.9766 9.89484L15.8484 8.21521C15.739 8.05024 15.5404 7.98463 15.3586 8.02025ZM16.8875 11.8444C17.2809 11.8444 17.6 12.1668 17.6 12.5643C17.6 12.9635 17.2809 13.2841 16.8875 13.2841C16.4923 13.2841 16.175 12.9635 16.175 12.5643C16.175 12.1668 16.4923 11.8444 16.8875 11.8444ZM22.1125 11.8444C22.5077 11.8444 22.825 12.1668 22.825 12.5643C22.825 12.9635 22.5077 13.2841 22.1125 13.2841C21.7191 13.2841 21.4 12.9635 21.4 12.5643C21.4 12.1668 21.7191 11.8444 22.1125 11.8444ZM11.425 15.2037C10.6383 15.2037 10 15.8485 10 16.6434V23.3619C10 24.1567 10.6383 24.8016 11.425 24.8016C11.592 24.8016 11.7516 24.766 11.9 24.7116V15.2937C11.7516 15.2393 11.592 15.2037 11.425 15.2037ZM12.85 15.2037V25.7614C12.85 26.5543 13.4901 27.2011 14.275 27.2011H24.725C25.5099 27.2011 26.15 26.5543 26.15 25.7614V15.2037H12.85ZM27.575 15.2037C27.408 15.2037 27.2484 15.2393 27.1 15.2937V24.7116C27.2484 24.7641 27.408 24.8016 27.575 24.8016C28.3617 24.8016 29 24.1567 29 23.3619V16.6434C29 15.8485 28.3617 15.2037 27.575 15.2037ZM14.75 28.1608V30.0804C14.75 31.1396 15.6017 32 16.65 32C17.6983 32 18.55 31.1396 18.55 30.0804V28.1608H14.75ZM20.45 28.1608V30.0804C20.45 31.1396 21.3017 32 22.35 32C23.3983 32 24.25 31.1396 24.25 30.0804V28.1608H20.45Z" fill="#A4C639"/>
</g>
<defs>
<clipPath id="clip0">
<rect width="119.664" height="40" fill="white"/>
</clipPath>
</defs>
</svg>
