<?xml version="1.0" encoding="UTF-8"?>
<svg version="1.1" viewBox="0 0 187.47 182.81" xmlns="http://www.w3.org/2000/svg" xmlns:cc="http://creativecommons.org/ns#" xmlns:dc="http://purl.org/dc/elements/1.1/" xmlns:rdf="http://www.w3.org/1999/02/22-rdf-syntax-ns#">
<metadata>
<rdf:RDF>
<cc:Work rdf:about="">
<dc:format>image/svg+xml</dc:format>
<dc:type rdf:resource="http://purl.org/dc/dcmitype/StillImage"/>
<dc:title/>
</cc:Work>
</rdf:RDF>
</metadata>
<g transform="translate(-493.09 -1311.2)" fill="#ff7102" fill-rule="evenodd">
<path d="m590.47 1318.2c-4.085 0.01-8.2296 2.0822-10.983 6.1872l-82.048 123.89c-7.211 15.19 3.2378 29.709 17.402 33.826 26.605 5.9254 50.972-9.9144 50.972-9.9144 35.892-22.966 59.072-35.93 59.072-35.93 28.605-14.5 53.627 3.2919 53.68 3.3296l-77.443-115.2c-2.5377-4.1412-6.5663-6.1962-10.651-6.1872zm0.0336 12.73c3.2145-0.01 6.3853 1.6115 8.3823 4.8703 18.914 28.075 40.41 57.02 58.509 85.602 0 0-17.273-8.9878-39.806 2.4351 0 0-18.247 10.204-46.491 28.277 0 0-19.169 12.457-40.105 7.7939-11.146-3.2398-19.374-14.667-13.7-26.62l64.572-97.487c2.1666-3.2304 5.4239-4.8631 8.6388-4.8703z"/>
<path d="m655.07 1439.5c-30.943 0.7649-57.794 29.676-79.664 38.221 33.249 39.96 132.79-7.4463 95.517-33.93-4.7292-3.224-10.085-4.433-15.853-4.2905zm10.981 11.457c17.547 17.529-48.352 48.024-76.374 27.971 10.737-0.8291 55.926-44.308 76.374-27.971z"/>
</g>
</svg>
