<svg width="107" height="99" viewBox="0 0 107 99" fill="none" xmlns="http://www.w3.org/2000/svg">
<path d="M61.8739 49.4811C61.8739 54.3699 57.9227 58.3223 53.0354 58.3223C48.1482 58.3223 44.197 54.3699 44.197 49.4811C44.197 44.5923 48.1482 40.6399 53.0354 40.6399C57.9227 40.6399 61.8739 44.5923 61.8739 49.4811Z" fill="#8BB7F0"/>
<path d="M53.0356 60.0916C47.1884 60.0916 42.4284 55.3302 42.4284 49.4813C42.4284 43.6324 47.1884 38.871 53.0356 38.871C58.8828 38.871 63.6427 43.6324 63.6427 49.4813C63.6427 55.3302 58.8828 60.0916 53.0356 60.0916ZM53.0356 42.4069C49.1348 42.4069 45.9633 45.5794 45.9633 49.4813C45.9633 53.3833 49.1348 56.5557 53.0356 56.5557C56.9364 56.5557 60.1079 53.3833 60.1079 49.4813C60.1079 45.5794 56.9364 42.4069 53.0356 42.4069Z" fill="#4E7AB5"/>
<path d="M104.297 49.4814C104.297 41.8711 96.8904 35.359 85.0104 31.2103C87.6542 18.4672 88.1104 8.79847 79.0413 3.42695C77.1506 2.30755 74.9946 1.73993 72.6345 1.73993C66.8112 1.73993 59.9456 5.28376 53.0324 11.4511C46.1165 5.2758 39.2484 1.72925 33.4198 1.72925C31.0623 1.72925 28.9091 2.29695 27.0183 3.41635C21.2719 6.82494 17.5701 14.4406 21.0492 31.2103C9.16918 35.3643 1.7627 41.8711 1.7627 49.4814C1.7627 57.0944 9.16918 63.6012 21.0492 67.7525C18.294 81.0341 18.4903 90.488 27.0211 95.5492C28.9118 96.6659 31.0702 97.2362 33.4277 97.2362C39.251 97.2362 46.1218 93.6923 53.0324 87.5171C59.9456 93.6844 66.8112 97.2256 72.6345 97.2256H72.6399C74.9973 97.2256 77.1504 96.6553 79.0465 95.5386C87.4951 90.5305 87.8504 81.4135 85.013 67.7525C96.8904 63.6039 104.297 57.0944 104.297 49.4814ZM75.4347 9.51204C80.786 12.6819 80.1205 18.9977 78.1475 29.189C74.6047 28.3322 70.7676 27.6744 66.7237 27.2075C63.9419 23.2366 61.0488 19.629 58.1133 16.4671C63.8358 11.4431 69.0254 8.81707 72.6345 8.81707C73.7271 8.81177 74.6392 9.04253 75.4347 9.51204ZM74.9522 58.2324C75.5065 59.8001 75.9917 61.3226 76.4319 62.824C74.9628 63.1848 73.43 63.5137 71.8442 63.8055C72.3215 63.0044 72.8015 62.2086 73.2656 61.381C73.841 60.3438 74.3954 59.2855 74.9522 58.2324ZM67.0975 57.9061C65.6735 60.4393 64.2071 62.7975 62.7274 65.0443C59.6248 65.3201 56.3896 65.4793 53.0298 65.4793C49.6647 65.4793 46.4189 65.3201 43.311 65.0443C41.8313 62.8055 40.3755 60.4287 38.9541 57.9061C37.3551 55.0678 35.9284 52.2481 34.6555 49.4814C35.9231 46.7174 37.3551 43.8977 38.9541 41.0568C40.3755 38.5368 41.8313 36.1601 43.3136 33.9213C46.4242 33.6454 49.6673 33.4862 53.0324 33.4862C56.4002 33.4862 59.638 33.6454 62.7486 33.9213C64.2283 36.1601 65.6841 38.5368 67.1055 41.0568C68.7045 43.8977 70.1366 46.7174 71.4041 49.4814C70.1286 52.2481 68.6966 55.0678 67.0975 57.9061ZM53.0324 77.5513C51.5898 75.9942 50.1367 74.2885 48.6808 72.4609C50.1154 72.5113 51.5554 72.5537 53.0298 72.5537C54.5042 72.5537 55.9468 72.5113 57.3814 72.4609C55.9255 74.2965 54.475 75.9942 53.0324 77.5513ZM32.7913 61.3757C33.2553 62.2007 33.7353 62.9965 34.2127 63.8002C32.6242 63.5058 31.0968 63.1768 29.6277 62.8161C30.0679 61.32 30.5532 59.7948 31.1048 58.2297C31.659 59.2908 32.2105 60.3439 32.7913 61.3757ZM31.1048 40.7331C30.5532 39.1681 30.0679 37.6455 29.6277 36.1441C31.0968 35.7887 32.6243 35.4597 34.2154 35.1627C33.7381 35.9637 33.2581 36.7596 32.794 37.5845C32.2106 38.6217 31.659 39.6747 31.1048 40.7331ZM53.0324 21.4222C54.4723 22.974 55.9255 24.6796 57.376 26.5072C55.9388 26.4542 54.5016 26.4118 53.0298 26.4118C51.5581 26.4118 50.1209 26.4542 48.6836 26.5046C50.1368 24.6743 51.5898 22.974 53.0324 21.4222ZM73.2604 37.5871C72.799 36.7595 72.3163 35.969 71.839 35.1627C73.4301 35.4544 74.9575 35.7833 76.4319 36.1441C75.9917 37.6455 75.5065 39.1681 74.9522 40.7358C74.3954 39.6774 73.8411 38.6217 73.2604 37.5871ZM30.6249 9.50143C31.4204 9.03192 32.3325 8.80113 33.4198 8.80113C37.0341 8.80113 42.2291 11.4325 47.9517 16.4592C45.0188 19.6211 42.123 23.2286 39.3359 27.2048C35.292 27.6744 31.4549 28.3322 27.9121 29.189C25.1516 14.934 28.5485 10.7375 30.6249 9.50143ZM8.83241 49.4814C8.83241 45.4919 14.1413 41.2689 22.8391 38.1574C23.9529 41.895 25.3344 45.6988 26.9494 49.4814C25.3371 53.2667 23.9555 57.0678 22.8391 60.808C14.1413 57.6939 8.83241 53.4709 8.83241 49.4814ZM30.6249 89.4614C25.8039 86.6046 25.8331 80.5116 27.9121 69.7765C31.4549 70.6333 35.2867 71.2911 39.3334 71.758C42.123 75.7396 45.0241 79.355 47.9675 82.5222C40.5637 89.0264 34.043 91.488 30.6249 89.4614ZM75.4347 89.4508C74.6392 89.923 73.7271 90.1511 72.6345 90.1511C69.0228 90.1511 63.8306 87.5251 58.1107 82.5064C61.0462 79.3445 63.9366 75.7368 66.7237 71.7606C70.7676 71.2911 74.6047 70.6359 78.1475 69.7792C80.2981 80.8936 80.1761 86.6444 75.4347 89.4508ZM83.2177 60.808C82.1013 57.0731 80.7172 53.2667 79.1049 49.4814C80.7225 45.6988 82.1041 41.8923 83.2205 38.1574C91.9184 41.2689 97.2272 45.4919 97.2272 49.4814C97.2272 53.4709 91.9183 57.6939 83.2177 60.808Z" fill="#8BB7F0"/>
<path d="M33.431 99C30.7501 99 28.2972 98.3501 26.1254 97.0662C17.7802 92.1165 16.3139 83.5168 19.0293 68.8957C6.91327 64.3279 0 57.3038 0 49.4813C0 41.6588 6.91327 34.6347 19.0293 30.0643C15.6562 11.9099 20.4956 5.23331 26.1254 1.89369C32.9988 -2.17805 42.7759 0.35786 53.0383 9.10082C63.2954 0.365818 73.0541 -2.17012 79.9461 1.90162C88.8216 7.15642 89.6595 15.9843 87.0421 30.0616C99.1581 34.6347 106.071 41.6614 106.071 49.4813C106.071 57.3012 99.1582 64.3279 87.0396 68.8983C89.8292 83.9041 88.2196 92.159 79.9461 97.0583C73.0541 101.13 63.2955 98.5941 53.0357 89.8618C46.0111 95.846 39.257 99 33.431 99ZM33.4257 3.49854C31.3891 3.49854 29.5383 3.98396 27.926 4.9389C21.4132 8.80108 20.3418 19.0746 22.7841 30.8495L23.1023 32.3668L21.6385 32.8787C10.1324 36.8974 3.53485 42.948 3.53485 49.4813C3.53485 56.0147 10.1324 62.0652 21.6385 66.0839L23.1023 66.5959L22.7841 68.1131C21.0657 76.3972 18.6288 88.5143 27.926 94.0264C33.6591 97.4191 42.5427 94.5224 51.8584 86.2012L53.0357 85.1455L54.213 86.1959C63.534 94.5118 72.4123 97.4005 78.1455 94.0158C87.3604 88.5567 85.0825 76.7739 83.2846 68.1131L82.9664 66.5959L84.4302 66.0839C95.9389 62.0652 102.537 56.0147 102.537 49.4813C102.537 42.948 95.939 36.8974 84.4329 32.8787L82.9691 32.3668L83.2873 30.8495C84.897 23.1066 87.9836 10.7719 78.1455 4.94683C72.4149 1.55416 63.5341 4.45081 54.2158 12.7694L53.0383 13.8198L51.861 12.7694C45.1652 6.79305 38.6206 3.49854 33.4257 3.49854ZM33.431 91.9202C32.0256 91.9202 30.7793 91.6045 29.7292 90.9812C24.1763 87.6893 23.9059 81.2063 26.1785 69.4394L26.5311 67.6224L28.3317 68.0574C31.7287 68.8771 35.4995 69.5323 39.5408 69.9991L40.3284 70.0894L40.7845 70.7419C43.5238 74.6492 46.3823 78.2063 49.2675 81.3152L50.5032 82.6467L49.1403 83.8457C43.2162 89.0554 37.6368 91.9202 33.431 91.9202ZM29.3287 71.9143C27.6024 82.4717 28.2786 86.0102 31.5324 87.9413C32.0309 88.2331 32.6673 88.3817 33.431 88.3817C36.4382 88.3817 40.7526 86.2038 45.433 82.3602C43.0226 79.6493 40.6466 76.6545 38.3449 73.421C35.1601 73.0284 32.1396 72.5244 29.3287 71.9143ZM72.6404 91.9202C68.4665 91.9202 62.8924 89.0474 56.9498 83.8351L55.5841 82.6361L56.8198 81.3019C59.705 78.1904 62.5504 74.6385 65.2844 70.7445L65.7405 70.0946L66.528 70.0018C70.572 69.5323 74.3454 68.8771 77.7397 68.0574L79.5403 67.6224L79.893 69.4394C82.2451 81.5883 81.8209 87.7291 76.3476 90.9706C75.2657 91.6125 74.0564 91.9202 72.6404 91.9202ZM60.6543 82.3417C66.5677 87.2013 72.0093 89.4321 74.5391 87.9334C77.7292 86.0447 78.5274 82.8616 76.7401 71.9197C73.9292 72.5271 70.9087 73.0337 67.7186 73.4263C65.4275 76.6439 63.0594 79.6334 60.6543 82.3417ZM53.0383 80.148L51.7443 78.7527C50.2991 77.193 48.8034 75.4449 47.3052 73.5589L44.9238 70.5641L48.7478 70.6942C51.5799 70.787 54.4995 70.7896 57.3237 70.6942L61.1422 70.5615L58.7716 73.5589C57.3105 75.4104 55.8175 77.1559 54.3378 78.7554L53.0383 80.148ZM53.0357 67.2457C49.7767 67.2457 46.4567 67.0972 43.1579 66.8054L42.3119 66.7311L41.8425 66.0202C40.2859 63.6594 38.7983 61.227 37.4194 58.776C35.8496 55.9855 34.3805 53.1101 33.0546 50.224L32.715 49.4813L33.0546 48.7465C34.3805 45.8605 35.8496 42.9798 37.4194 40.1893C38.7904 37.7542 40.278 35.3164 41.8425 32.9503L42.3119 32.2394L43.1579 32.1651C49.7396 31.5789 56.2948 31.5736 62.9084 32.1651L63.757 32.2394L64.2262 32.9503C65.7748 35.2979 67.2626 37.7382 68.6468 40.1945C70.2167 42.9851 71.683 45.8605 73.0089 48.7465L73.3483 49.4813L73.0089 50.2161C71.683 53.1021 70.2167 55.9828 68.6468 58.7733C67.305 61.1501 65.8571 63.5189 64.2077 66.015L63.7383 66.7259L62.8898 66.8001C59.6095 67.0972 56.2921 67.2457 53.0357 67.2457ZM44.3247 63.3518C50.1427 63.8266 55.9234 63.8265 61.7256 63.357C63.1337 61.1925 64.3959 59.1155 65.5653 57.0386C66.9549 54.5716 68.2649 52.0305 69.4582 49.4813C68.2649 46.9322 66.9549 44.391 65.5653 41.9267C64.3641 39.7914 63.0807 37.6693 61.7442 35.6109C55.9023 35.136 50.14 35.136 44.3247 35.6109C42.9776 37.6825 41.694 39.8046 40.498 41.9241C39.1085 44.391 37.8012 46.9322 36.6053 49.4813C37.8012 52.0305 39.1085 54.5716 40.498 57.0359C41.6966 59.1659 42.9802 61.288 44.3247 63.3518ZM37.7083 66.2484L33.8925 65.5428C32.2749 65.2404 30.7184 64.9062 29.2148 64.5374L27.4114 64.0945L27.9365 62.3172C28.3846 60.7893 28.8807 59.2349 29.4428 57.6407L30.7925 53.813L32.6779 57.41C33.2189 58.4498 33.7704 59.4896 34.3379 60.5082C34.6641 61.0812 34.9956 61.6434 35.3244 62.2031L37.7083 66.2484ZM68.3338 66.2457L70.6038 62.426C70.9803 61.7894 71.3568 61.1554 71.7254 60.5055C72.2876 59.5081 72.8207 58.4922 73.3511 57.4736L75.2286 53.8873L76.6181 57.6381C77.1882 59.2349 77.684 60.792 78.1322 62.3172L78.6546 64.0945L76.8514 64.5374C75.3505 64.9062 73.7913 65.2404 72.1631 65.5428L68.3338 66.2457ZM82.0649 63.1024L81.5291 61.3145C80.4446 57.6752 79.0868 53.9271 77.4851 50.1789L77.1881 49.4813L77.4851 48.789C79.0682 45.0807 80.4313 41.3325 81.5371 37.6507L82.0675 35.8682L83.8203 36.4942C93.4702 39.9426 98.9991 44.6748 98.9991 49.4813C98.9991 54.2852 93.4674 59.0201 83.8176 62.4711L82.0649 63.1024ZM81.0306 49.4813C82.2929 52.5053 83.4119 55.5266 84.3586 58.4895C92.5155 55.2613 95.4643 51.6697 95.4643 49.4813C95.4643 47.2929 92.5155 43.7013 84.3586 40.4731C83.404 43.4652 82.2876 46.4865 81.0306 49.4813ZM24.004 63.0971L22.2511 62.4684C12.6013 59.02 7.07229 54.2878 7.07229 49.4813C7.07229 44.6748 12.6013 39.9426 22.2511 36.4942L24.004 35.8655L24.5369 37.6507C25.6348 41.3219 26.9925 45.0674 28.5836 48.7837L28.8806 49.4813L28.5836 50.1736C26.9952 53.8952 25.6348 57.6407 24.5369 61.3093L24.004 63.0971ZM21.7102 40.4731C13.556 43.7013 10.6071 47.2929 10.6071 49.4813C10.6071 51.6697 13.556 55.2613 21.7102 58.4895C22.6595 55.5053 23.7785 52.4867 25.0355 49.4813C23.7785 46.4759 22.6595 43.4573 21.7102 40.4731ZM30.7925 45.1443L29.4428 41.3193C28.8807 39.7224 28.3846 38.1706 27.9365 36.6427L27.4114 34.8629L29.2148 34.4225C30.7184 34.0538 32.2749 33.7222 33.9004 33.4172L37.7269 32.7063L35.4145 36.6135C35.0486 37.2183 34.6932 37.8231 34.3379 38.4492C33.7704 39.4651 33.2216 40.5049 32.6779 41.5447L30.7925 45.1443ZM75.2656 45.139L73.3881 41.5527C72.8207 40.4704 72.2876 39.4518 71.7254 38.4544C71.3568 37.8019 70.9803 37.1706 70.6038 36.5339L68.3338 32.7142L72.1631 33.4198C73.7913 33.7222 75.3505 34.0565 76.8514 34.4252L78.6546 34.8681L78.1322 36.6454C77.684 38.1733 77.1882 39.7303 76.6181 41.3245L75.2656 45.139ZM26.5311 31.3402L26.1785 29.5232C23.227 14.2363 26.913 9.64992 29.7292 7.98143C33.9985 5.45881 41.1663 8.14585 49.1216 15.1328L50.4874 16.3318L49.249 17.6634C46.3718 20.7669 43.5211 24.3214 40.7845 28.2207L40.3284 28.8732L39.5408 28.9635C35.4942 29.4304 31.726 30.0855 28.3238 30.9052L26.5311 31.3402ZM33.4257 10.573C32.6567 10.573 32.0521 10.7189 31.5324 11.0266C30.9198 11.3873 27.0164 12.9179 29.3287 27.0483C32.1423 26.4355 35.1654 25.9342 38.3528 25.5416C40.644 22.3161 43.0146 19.3266 45.4198 16.6236C40.7659 12.8092 36.3612 10.573 33.4257 10.573ZM79.535 31.3402L77.7371 30.9052C74.3428 30.0855 70.5693 29.4303 66.5253 28.9608L65.7351 28.868L65.279 28.2181C62.5371 24.3055 59.689 20.7563 56.8198 17.6634L55.5787 16.3318L56.947 15.1328C64.905 8.14585 72.0755 5.46938 76.3369 7.9867C82.4201 11.5916 82.0569 18.2974 79.8825 29.5205L79.535 31.3402ZM67.7186 25.5416C70.9061 25.9342 73.9292 26.4382 76.7401 27.0483C78.3789 17.048 78.3126 13.2654 74.5391 11.0319C72.004 9.53319 66.5704 11.764 60.6543 16.6288C63.0515 19.3186 65.4222 22.3081 67.7186 25.5416ZM44.9238 28.3985L47.3079 25.3983C48.8247 23.4964 50.3176 21.7537 51.7443 20.2152L53.0436 18.8146L54.3378 20.2152C55.8016 21.7988 57.2891 23.5415 58.7635 25.3983L61.1422 28.3958L57.3211 28.2632C54.489 28.173 51.5825 28.173 48.7504 28.2632L44.9238 28.3985Z" fill="#4E7AB5"/>
</svg>
