<svg width="22" height="22" viewBox="0 0 22 22" fill="none" xmlns="http://www.w3.org/2000/svg">
<path d="M0.246062 2.4127L0.281732 18.9816C0.284547 20.289 1.34975 21.346 2.66172 21.3432L19.2882 21.3074C20.6002 21.3046 21.6608 20.243 21.658 18.9356L21.6224 2.36668C21.6195 1.05926 20.5543 0.00228897 19.2424 0.00511344L2.61586 0.0409077C1.30389 0.0437322 0.243247 1.10528 0.246062 2.4127ZM12.9316 11.2035L10.4166 11.2089L10.4333 18.9598L8.40581 18.9641L8.38912 11.2133L5.92603 11.2186L5.92234 9.50164L12.9279 9.48656L12.9316 11.2035ZM13.3417 18.5104L13.3372 16.4382C13.3372 16.4382 14.4742 17.2895 15.838 17.2865C17.2012 17.2836 17.1459 16.3959 17.1456 16.274C17.1429 14.9852 13.2817 14.9935 13.2756 12.139C13.2672 8.25614 18.8963 9.77672 18.8963 9.77672L18.8302 11.6217C18.8302 11.6217 17.8857 10.9963 16.8195 10.9986C15.7539 11.0009 15.3702 11.5071 15.3713 12.0472C15.3743 13.4398 19.271 13.2919 19.277 16.0953C19.2863 20.4127 13.3417 18.5104 13.3417 18.5104Z" fill="#1976D4"/>
</svg>
